<svg xmlns="http://www.w3.org/2000/svg" xmlns:xlink="http://www.w3.org/1999/xlink" viewBox="0 0 480.84 85.89"><defs><style>.a{fill:none;}.b{clip-path:url(#a);}.c{fill:#0052ff;}</style><clipPath id="a"><rect class="a" width="480.84" height="85.89"/></clipPath></defs><title>coinbase</title><g class="b"><path class="c" d="M97.05,24C79.58,24,65.93,37.24,65.93,55s13.3,30.9,31.12,30.9,31.34-13.37,31.34-31S115.09,24,97.05,24Zm.11,49.12c-9.94,0-17.23-7.73-17.23-18.1S87.1,36.78,97.05,36.78,114.4,44.62,114.4,55,107.11,73.1,97.16,73.1Zm35.05-35.63h8.68V84.74h13.88V25.13H132.21ZM31,36.78A15.78,15.78,0,0,1,46.27,48H61C58.3,33.67,46.5,24,31.12,24,13.65,24,0,37.24,0,55S13.3,85.89,31.12,85.89c15,0,27.06-9.68,29.73-24.09H46.27A15.67,15.67,0,0,1,31.11,73.1C21.05,73.1,14,65.37,14,55S20.94,36.78,31,36.78ZM395.94,49.23l-10.18-1.5c-4.86-.69-8.33-2.3-8.33-6.11,0-4.15,4.52-6.22,10.64-6.22,6.71,0,11,2.88,11.92,7.61h13.42c-1.51-12-10.76-19-25-19-14.69,0-24.4,7.5-24.4,18.11,0,10.14,6.36,16,19.2,17.86l10.17,1.5c5,.69,7.76,2.66,7.76,6.34,0,4.73-4.86,6.69-11.57,6.69-8.21,0-12.84-3.34-13.54-8.41H362.4c1.27,11.64,10.41,19.82,27.06,19.82,15.16,0,25.22-6.91,25.22-18.79C414.68,56.49,407.39,51,395.94,49.23ZM147.83.58a8.59,8.59,0,0,0-8.91,8.76,8.91,8.91,0,0,0,17.82,0A8.59,8.59,0,0,0,147.83.58Zm203.69,45C351.52,32.63,343.66,24,327,24c-15.73,0-24.52,8-26.26,20.18h13.77c.69-4.72,4.39-8.64,12.26-8.64,7.06,0,10.53,3.11,10.53,6.91,0,5-6.37,6.23-14.23,7-10.64,1.15-23.83,4.84-23.83,18.67,0,10.73,8,17.64,20.71,17.64,9.95,0,16.19-4.15,19.32-10.72.46,5.88,4.86,9.68,11,9.68h8.09V72.41h-6.82V45.54Zm-13.65,15c0,8-6.94,13.84-15.38,13.84-5.21,0-9.6-2.19-9.6-6.8,0-5.88,7.05-7.5,13.53-8.19,6.25-.57,9.72-2,11.45-4.61ZM264.19,24a24.17,24.17,0,0,0-18.85,8.65V0H231.46V84.74H245.1V76.9a24.09,24.09,0,0,0,19.09,9c16.66,0,29.27-13.14,29.27-30.89S280.62,24,264.19,24ZM262.11,73.1c-10,0-17.24-7.73-17.24-18.1s7.41-18.22,17.35-18.22S279.34,44.51,279.34,55,272.06,73.1,262.11,73.1ZM198.26,24c-9,0-14.93,3.69-18.39,8.88V25.13H166.1V84.74H180V52.34c0-9.11,5.78-15.56,14.34-15.56,8,0,13,5.65,13,13.83V84.74h13.88V49.58C221.16,34.59,213.41,24,198.26,24ZM480.84,53C480.84,36,468.35,24,451.58,24c-17.82,0-30.89,13.38-30.89,31,0,18.56,14,30.89,31.12,30.89,14.46,0,25.79-8.53,28.68-20.63H466c-2.08,5.3-7.17,8.3-14,8.3-8.91,0-15.62-5.53-17.12-15.22h45.92V53Zm-45.11-4.62c2.2-8.3,8.44-12.33,15.62-12.33,7.86,0,13.88,4.49,15.26,12.33Z"/></g></svg>