<?xml version="1.0" encoding="UTF-8"?><svg id="a" xmlns="http://www.w3.org/2000/svg" viewBox="0 0 2395.3 506.8"><g id="b"><g id="c"><path d="M300.1,376.4c0,79.1-71,125.5-150,125.5S0,455.6,0,376.4H102.3c0,31.4,25.2,39.5,47.8,39.5s47.8-11.6,47.8-35.4c0-17.1-22.5-32.8-53.2-36.8C73,334.8,4.1,291.2,4.1,233.3c0-75.1,66.8-121.4,145.9-121.4s145.9,46.3,145.9,125.4h-102.2c0-31.4-21.1-39.5-43.7-39.5s-43.7,8.1-43.7,32.8c0,21.8,45,38.9,84.6,43.7,53.9,6,109.2,40.1,109.2,102.1Z"/><path d="M453.5,0V122.8h102.3v87.3h-102.3v96.9c-.1,56.3,45.6,102.2,102,102.3h.3v92.8h-13.6c-113.2,0-191-87.3-191-195.1V0h102.3Z"/><path d="M1005.3,306.9v195.1h-95.5v-56.6c-24.1,35.4-64.2,56.6-107.1,56.6-111.9,0-202.5-87.3-202.5-195.1s90.6-195,202.5-195,202.6,87.2,202.6,195Zm-98.2,0c0-56.5-45.8-102.4-102.4-102.4s-102.3,45.8-102.3,102.4,45.8,102.3,102.4,102.3h0c56.4,.1,102.3-45.6,102.3-102.1v-.2Z"/><path d="M1257.6,111.9h13.6v92.7c-56.4-.1-102.3,45.6-102.4,102.1v195.4h-102.3v-195.2c.2-107.8,77.9-195,191.1-195Z"/><path d="M1415.9,0V122.8h102.3v87.3h-102.3v96.9c-.1,56.4,45.6,102.3,102.1,102.4h.3v92.8h-13.6c-113.2,0-191-87.3-191-195.1V0h102.2Z"/><path d="M2204.3,111.9c113.2,0,191,87.3,191,195.1v195.1h-102.3v-195.2c0-56.6-32-102.3-88.7-102.3s-88.7,45.7-88.7,102.3v195.1h-102.3v-195.1c0-107.8,77.8-195,191-195Z"/><path d="M1918.8,184l-106.3-61.5c-23-13.2-51.3-13.2-74.3,0l-106.3,61.5c-22.9,13.3-37.1,37.8-37.1,64.3v122.8c0,26.5,14.2,51,37.1,64.3l106.3,61.5c23,13.2,51.3,13.2,74.3,0l106.3-61.5c22.9-13.3,37-37.8,37.1-64.3v-122.8c-.1-26.5-14.2-51-37.1-64.3Zm-281.8,242.6c-19.8-11.5-32-32.6-32-55.5v-122.8c0-22.8,12.2-44,32-55.5l106.3-61.5c7.7-4.5,16.3-7.2,25.2-8.1-11.7,18.3-20.6,38.2-26.4,59.1-13.7,50.3-2.8,95,31.4,129.3,18.3,18.3,29.7,39.5,33.9,63.1,3.4,19,2.1,39.4-3.8,61-6.1,21.6-15.5,42.2-27.8,61-11.4,.1-22.6-2.9-32.5-8.5l-106.3-61.6Z"/></g></g></svg>