<?xml version="1.0" encoding="utf-8"?>
<!-- Generator: Adobe Illustrator 25.4.1, SVG Export Plug-In . SVG Version: 6.00 Build 0)  -->
<svg version="1.1" baseProfile="basic" id="Layer_1"
	 xmlns="http://www.w3.org/2000/svg" xmlns:xlink="http://www.w3.org/1999/xlink" x="0px" y="0px" viewBox="0 0 1433.7 237.6"
	 xml:space="preserve">
<g id="Page-1">
	<g id="walletconnect-logo-2">
		<path id="WalletConnect" fill-rule="evenodd" clip-rule="evenodd" fill="#3999FB" d="M502.4,99.5l-20,72.1h-20.8L433.6,66.1h22.9
			l16.6,76.4h0.6l19.7-76.4H512l19.7,76.4h0.6L549,66.1h22.9l-28,105.5h-20.8l-20-72.1H502.4z M602.3,157.3c9.3,0,17-6.1,17-14.5
			v-5.7l-16.5,1c-8,0.6-12.5,4.2-12.5,9.7C590.2,153.7,595.1,157.3,602.3,157.3z M595.3,172.8c-14.9,0-26.2-9.6-26.2-23.8
			c0-14.3,11-22.5,30.5-23.7l19.7-1.2V119c0-7.3-5.1-11.5-13.2-11.5c-8,0-13,3.9-14,9.7h-19.5c0.8-15.2,13.7-25.7,34.5-25.7
			c20.1,0,33.2,10.4,33.2,26.2v53.9h-20.6v-12h-0.4C614.8,167.9,605.1,172.8,595.3,172.8z M654.5,171.5V66.1h21.3v105.5H654.5z
			 M690.7,171.5V66.1h21.3v105.5H690.7z M761.6,107.3c-9.4,0-16.1,7.1-16.8,16.9h33.3C777.6,114.2,771.1,107.3,761.6,107.3z
			 M778.3,147.6h19.6c-2.3,15.3-16.4,25.7-35.7,25.7c-24.1,0-38.6-15.4-38.6-40.5c0-25,14.6-41.2,37.8-41.2
			c22.8,0,37.2,15.4,37.2,39.2v6.5h-54v1.3c0,11.2,7.1,18.9,18,18.9C770.4,157.4,776.4,153.5,778.3,147.6z M815.2,75.1h21.3v18.1
			h14.5v16.1h-14.5v37.5c0,6,2.9,8.8,9.2,8.8c1.9,0,3.9-0.1,5.2-0.4v15.7c-2.2,0.5-5.8,0.9-10.2,0.9c-18.4,0-25.6-6.1-25.6-21.4
			v-41.1h-11V93.2h11V75.1z M911.2,173.3c-30.7,0-49.9-20.5-49.9-54.6c0-34,19.4-54.5,49.9-54.5c25.4,0,44.7,16.1,46.3,39.7H936
			c-2-12.9-12-21.4-24.8-21.4c-16.7,0-27.4,14-27.4,36.2c0,22.5,10.6,36.4,27.5,36.4c13.1,0,22.5-7.7,24.8-20.2h21.5
			C955.1,158.4,937.1,173.3,911.2,173.3z M1005.3,173.2c-23.7,0-38.8-15.2-38.8-40.9c0-25.4,15.3-40.8,38.8-40.8
			c23.5,0,38.8,15.3,38.8,40.8C1044.1,158.1,1029,173.2,1005.3,173.2z M1005.3,156.9c10.5,0,17.1-8.8,17.1-24.6
			c0-15.6-6.7-24.6-17.1-24.6c-10.4,0-17.2,9-17.2,24.6C988.2,148.1,994.8,156.9,1005.3,156.9z M1055.1,171.5V93.2h20.6v14h0.4
			c4.2-9.7,12.4-15.4,24.5-15.4c17.4,0,27.2,11,27.2,29.3v50.5h-21.3v-46c0-10.2-4.8-16.1-14.4-16.1s-15.6,7-15.6,17.2v44.9H1055.1z
			 M1141.3,171.5V93.2h20.6v14h0.4c4.2-9.7,12.4-15.4,24.5-15.4c17.4,0,27.2,11,27.2,29.3v50.5h-21.3v-46c0-10.2-4.8-16.1-14.4-16.1
			c-9.6,0-15.6,7-15.6,17.2v44.9H1141.3z M1262.7,107.3c-9.4,0-16.1,7.1-16.8,16.9h33.3C1278.7,114.2,1272.2,107.3,1262.7,107.3z
			 M1279.4,147.6h19.6c-2.3,15.3-16.4,25.7-35.7,25.7c-24.1,0-38.6-15.4-38.6-40.5c0-25,14.6-41.2,37.8-41.2
			c22.8,0,37.2,15.4,37.2,39.2v6.5h-54v1.3c0,11.2,7.1,18.9,18,18.9C1271.5,157.4,1277.5,153.5,1279.4,147.6z M1381.8,122.3H1362
			c-1.2-8.3-6.7-14.1-15.5-14.1c-10.5,0-17.1,8.9-17.1,24c0,15.4,6.6,24.2,17.2,24.2c8.6,0,14.1-5.1,15.4-13.7h19.9
			c-1.1,18.5-14.9,30.4-35.5,30.4c-23.6,0-38.6-15.3-38.6-40.9c0-25.1,15-40.8,38.4-40.8C1367.4,91.5,1380.9,104.6,1381.8,122.3z
			 M1397.9,75.1h21.3v18.1h14.5v16.1h-14.5v37.5c0,6,2.9,8.8,9.2,8.8c1.9,0,3.9-0.1,5.2-0.4v15.7c-2.2,0.5-5.8,0.9-10.2,0.9
			c-18.4,0-25.6-6.1-25.6-21.4v-41.1h-11V93.2h11V75.1z"/>
		<path id="WalletConnect_00000073703063438220642730000002917717552236472496_" fill="#3B99FC" d="M79.4,46.4
			c63.2-61.9,165.7-61.9,228.9,0l7.6,7.4c3.2,3.1,3.2,8.1,0,11.2l-26,25.5c-1.6,1.5-4.1,1.5-5.7,0l-10.5-10.3
			c-44.1-43.2-115.6-43.2-159.7,0l-11.2,11c-1.6,1.5-4.1,1.5-5.7,0L71,65.8c-3.2-3.1-3.2-8.1,0-11.2L79.4,46.4z M362.1,99.1
			l23.2,22.7c3.2,3.1,3.2,8.1,0,11.2L280.8,235.3c-3.2,3.1-8.3,3.1-11.4,0c0,0,0,0,0,0l-74.1-72.6c-0.8-0.8-2.1-0.8-2.9,0
			c0,0,0,0,0,0l-74.1,72.6c-3.2,3.1-8.3,3.1-11.4,0c0,0,0,0,0,0L2.4,133c-3.2-3.1-3.2-8.1,0-11.2l23.2-22.7c3.2-3.1,8.3-3.1,11.4,0
			l74.1,72.6c0.8,0.8,2.1,0.8,2.9,0c0,0,0,0,0,0l74.1-72.6c3.2-3.1,8.3-3.1,11.4,0c0,0,0,0,0,0l74.1,72.6c0.8,0.8,2.1,0.8,2.9,0
			l74.1-72.6C353.8,96,358.9,96,362.1,99.1z"/>
	</g>
</g>
</svg>
